<?xml version="1.0" encoding="utf-8"?>
<svg xmlns="http://www.w3.org/2000/svg" xmlns:xlink="http://www.w3.org/1999/xlink">

<!--  Quitar width, height y fill, luego agregar id-->

  <symbol xmlns="http://www.w3.org/2000/svg" id="briefcase-fill" class="bi bi-briefcase-fill" viewBox="0 0 16 16">
    <path d="M6.5 1A1.5 1.5 0 0 0 5 2.5V3H1.5A1.5 1.5 0 0 0 0 4.5v1.384l7.614 2.03a1.5 1.5 0 0 0 .772 0L16 5.884V4.5A1.5 1.5 0 0 0 14.5 3H11v-.5A1.5 1.5 0 0 0 9.5 1h-3zm0 1h3a.5.5 0 0 1 .5.5V3H6v-.5a.5.5 0 0 1 .5-.5z"/>
    <path d="M0 12.5A1.5 1.5 0 0 0 1.5 14h13a1.5 1.5 0 0 0 1.5-1.5V6.85L8.129 8.947a.5.5 0 0 1-.258 0L0 6.85v5.65z"/>
  </symbol>

  <symbol xmlns="http://www.w3.org/2000/svg" id="person-plus-fill" class="bi bi-person-plus-fill" viewBox="0 0 16 16">
    <path d="M1 14s-1 0-1-1 1-4 6-4 6 3 6 4-1 1-1 1H1zm5-6a3 3 0 1 0 0-6 3 3 0 0 0 0 6z"/>
    <path fill-rule="evenodd" d="M13.5 5a.5.5 0 0 1 .5.5V7h1.5a.5.5 0 0 1 0 1H14v1.5a.5.5 0 0 1-1 0V8h-1.5a.5.5 0 0 1 0-1H13V5.5a.5.5 0 0 1 .5-.5z"/>
  </symbol>

  <symbol xmlns="http://www.w3.org/2000/svg" id="person-fill" class="bi bi-person-fill" viewBox="0 0 16 16">
    <path d="M3 14s-1 0-1-1 1-4 6-4 6 3 6 4-1 1-1 1H3zm5-6a3 3 0 1 0 0-6 3 3 0 0 0 0 6z"/>
  </symbol>

  <symbol xmlns="http://www.w3.org/2000/svg" id="people-fill" class="bi bi-people-fill" viewBox="0 0 16 16">
    <path d="M7 14s-1 0-1-1 1-4 5-4 5 3 5 4-1 1-1 1H7zm4-6a3 3 0 1 0 0-6 3 3 0 0 0 0 6z"/>
    <path fill-rule="evenodd" d="M5.216 14A2.238 2.238 0 0 1 5 13c0-1.355.68-2.75 1.936-3.72A6.325 6.325 0 0 0 5 9c-4 0-5 3-5 4s1 1 1 1h4.216z"/>
    <path d="M4.5 8a2.5 2.5 0 1 0 0-5 2.5 2.5 0 0 0 0 5z"/>
  </symbol>

  <symbol xmlns="http://www.w3.org/2000/svg" id="gear-fill" class="bi bi-gear-fill" viewBox="0 0 16 16">
    <path d="M9.405 1.05c-.413-1.4-2.397-1.4-2.81 0l-.1.34a1.464 1.464 0 0 1-2.105.872l-.31-.17c-1.283-.698-2.686.705-1.987 1.987l.169.311c.446.82.023 1.841-.872 2.105l-.34.1c-1.4.413-1.4 2.397 0 2.81l.34.1a1.464 1.464 0 0 1 .872 2.105l-.17.31c-.698 1.283.705 2.686 1.987 1.987l.311-.169a1.464 1.464 0 0 1 2.105.872l.1.34c.413 1.4 2.397 1.4 2.81 0l.1-.34a1.464 1.464 0 0 1 2.105-.872l.31.17c1.283.698 2.686-.705 1.987-1.987l-.169-.311a1.464 1.464 0 0 1 .872-2.105l.34-.1c1.4-.413 1.4-2.397 0-2.81l-.34-.1a1.464 1.464 0 0 1-.872-2.105l.17-.31c.698-1.283-.705-2.686-1.987-1.987l-.311.169a1.464 1.464 0 0 1-2.105-.872l-.1-.34zM8 10.93a2.929 2.929 0 1 1 0-5.86 2.929 2.929 0 0 1 0 5.858z"/>
  </symbol>

  <symbol xmlns="http://www.w3.org/2000/svg" id="trash-fill" class="bi bi-trash-fill" viewBox="0 0 16 16">
    <path d="M2.5 1a1 1 0 0 0-1 1v1a1 1 0 0 0 1 1H3v9a2 2 0 0 0 2 2h6a2 2 0 0 0 2-2V4h.5a1 1 0 0 0 1-1V2a1 1 0 0 0-1-1H10a1 1 0 0 0-1-1H7a1 1 0 0 0-1 1H2.5zm3 4a.5.5 0 0 1 .5.5v7a.5.5 0 0 1-1 0v-7a.5.5 0 0 1 .5-.5zM8 5a.5.5 0 0 1 .5.5v7a.5.5 0 0 1-1 0v-7A.5.5 0 0 1 8 5zm3 .5v7a.5.5 0 0 1-1 0v-7a.5.5 0 0 1 1 0z"/>
  </symbol>

  <symbol xmlns="http://www.w3.org/2000/svg" id="file-earmark-check" class="bi bi-file-earmark-check" viewBox="0 0 16 16">
    <path d="M10.854 7.854a.5.5 0 0 0-.708-.708L7.5 9.793 6.354 8.646a.5.5 0 1 0-.708.708l1.5 1.5a.5.5 0 0 0 .708 0l3-3z"/>
    <path d="M14 14V4.5L9.5 0H4a2 2 0 0 0-2 2v12a2 2 0 0 0 2 2h8a2 2 0 0 0 2-2zM9.5 3A1.5 1.5 0 0 0 11 4.5h2V14a1 1 0 0 1-1 1H4a1 1 0 0 1-1-1V2a1 1 0 0 1 1-1h5.5v2z"/>
  </symbol>

  <symbol xmlns="http://www.w3.org/2000/svg" id="cursor-fill" class="bi bi-cursor-fill" viewBox="0 0 16 16">
    <path d="M14.082 2.182a.5.5 0 0 1 .103.557L8.528 15.467a.5.5 0 0 1-.917-.007L5.57 10.694.803 8.652a.5.5 0 0 1-.006-.916l12.728-5.657a.5.5 0 0 1 .556.103z"/>
  </symbol>

  <symbol xmlns="http://www.w3.org/2000/svg" id="file-earmark-text" class="bi bi-file-earmark-text" viewBox="0 0 16 16">
    <path d="M5.5 7a.5.5 0 0 0 0 1h5a.5.5 0 0 0 0-1h-5zM5 9.5a.5.5 0 0 1 .5-.5h5a.5.5 0 0 1 0 1h-5a.5.5 0 0 1-.5-.5zm0 2a.5.5 0 0 1 .5-.5h2a.5.5 0 0 1 0 1h-2a.5.5 0 0 1-.5-.5z"/>
    <path d="M9.5 0H4a2 2 0 0 0-2 2v12a2 2 0 0 0 2 2h8a2 2 0 0 0 2-2V4.5L9.5 0zm0 1v2A1.5 1.5 0 0 0 11 4.5h2V14a1 1 0 0 1-1 1H4a1 1 0 0 1-1-1V2a1 1 0 0 1 1-1h5.5z"/>
  </symbol>

  <symbol xmlns="http://www.w3.org/2000/svg" id="check2-circle" class="bi bi-check2-circle" viewBox="0 0 16 16">
    <path d="M2.5 8a5.5 5.5 0 0 1 8.25-4.764.5.5 0 0 0 .5-.866A6.5 6.5 0 1 0 14.5 8a.5.5 0 0 0-1 0 5.5 5.5 0 1 1-11 0z"/>
    <path d="M15.354 3.354a.5.5 0 0 0-.708-.708L8 9.293 5.354 6.646a.5.5 0 1 0-.708.708l3 3a.5.5 0 0 0 .708 0l7-7z"/>
  </symbol>

  <symbol xmlns="http://www.w3.org/2000/svg" id="person-lines-fill" class="bi bi-person-lines-fill" viewBox="0 0 16 16">
    <path d="M6 8a3 3 0 1 0 0-6 3 3 0 0 0 0 6zm-5 6s-1 0-1-1 1-4 6-4 6 3 6 4-1 1-1 1H1zM11 3.5a.5.5 0 0 1 .5-.5h4a.5.5 0 0 1 0 1h-4a.5.5 0 0 1-.5-.5zm.5 2.5a.5.5 0 0 0 0 1h4a.5.5 0 0 0 0-1h-4zm2 3a.5.5 0 0 0 0 1h2a.5.5 0 0 0 0-1h-2zm0 3a.5.5 0 0 0 0 1h2a.5.5 0 0 0 0-1h-2z"/>
  </symbol>

  <symbol xmlns="http://www.w3.org/2000/svg" id="box-arrow-right" class="bi bi-box-arrow-right" viewBox="0 0 16 16">
    <path fill-rule="evenodd" d="M10 12.5a.5.5 0 0 1-.5.5h-8a.5.5 0 0 1-.5-.5v-9a.5.5 0 0 1 .5-.5h8a.5.5 0 0 1 .5.5v2a.5.5 0 0 0 1 0v-2A1.5 1.5 0 0 0 9.5 2h-8A1.5 1.5 0 0 0 0 3.5v9A1.5 1.5 0 0 0 1.5 14h8a1.5 1.5 0 0 0 1.5-1.5v-2a.5.5 0 0 0-1 0v2z"/>
    <path fill-rule="evenodd" d="M15.854 8.354a.5.5 0 0 0 0-.708l-3-3a.5.5 0 0 0-.708.708L14.293 7.5H5.5a.5.5 0 0 0 0 1h8.793l-2.147 2.146a.5.5 0 0 0 .708.708l3-3z"/>
  </symbol>

  <symbol xmlns="http://www.w3.org/2000/svg" id="search" class="bi bi-search" viewBox="0 0 16 16">
    <path d="M11.742 10.344a6.5 6.5 0 1 0-1.397 1.398h-.001c.03.04.062.078.098.115l3.85 3.85a1 1 0 0 0 1.415-1.414l-3.85-3.85a1.007 1.007 0 0 0-.115-.1zM12 6.5a5.5 5.5 0 1 1-11 0 5.5 5.5 0 0 1 11 0z"/>
  </symbol>

  <symbol xmlns="http://www.w3.org/2000/svg" id="eye-fill" class="bi bi-eye-fill" viewBox="0 0 16 16">
    <path d="M10.5 8a2.5 2.5 0 1 1-5 0 2.5 2.5 0 0 1 5 0z"/>
    <path d="M0 8s3-5.5 8-5.5S16 8 16 8s-3 5.5-8 5.5S0 8 0 8zm8 3.5a3.5 3.5 0 1 0 0-7 3.5 3.5 0 0 0 0 7z"/>
  </symbol>

  <symbol xmlns="http://www.w3.org/2000/svg" id="eye-slash-fill" class="bi bi-eye-slash-fill" viewBox="0 0 16 16">
    <path d="m10.79 12.912-1.614-1.615a3.5 3.5 0 0 1-4.474-4.474l-2.06-2.06C.938 6.278 0 8 0 8s3 5.5 8 5.5a7.029 7.029 0 0 0 2.79-.588zM5.21 3.088A7.028 7.028 0 0 1 8 2.5c5 0 8 5.5 8 5.5s-.939 1.721-2.641 3.238l-2.062-2.062a3.5 3.5 0 0 0-4.474-4.474L5.21 3.089z"/>
    <path d="M5.525 7.646a2.5 2.5 0 0 0 2.829 2.829l-2.83-2.829zm4.95.708-2.829-2.83a2.5 2.5 0 0 1 2.829 2.829zm3.171 6-12-12 .708-.708 12 12-.708.708z"/>
  </symbol>

  <symbol xmlns="http://www.w3.org/2000/svg" id="chat-right-dots" class="bi bi-chat-right-dots" viewBox="0 0 16 16">
    <path d="M2 1a1 1 0 0 0-1 1v8a1 1 0 0 0 1 1h9.586a2 2 0 0 1 1.414.586l2 2V2a1 1 0 0 0-1-1H2zm12-1a2 2 0 0 1 2 2v12.793a.5.5 0 0 1-.854.353l-2.853-2.853a1 1 0 0 0-.707-.293H2a2 2 0 0 1-2-2V2a2 2 0 0 1 2-2h12z"/>
    <path d="M5 6a1 1 0 1 1-2 0 1 1 0 0 1 2 0zm4 0a1 1 0 1 1-2 0 1 1 0 0 1 2 0zm4 0a1 1 0 1 1-2 0 1 1 0 0 1 2 0z"/>
  </symbol>

  <symbol xmlns="http://www.w3.org/2000/svg" id="arrow-right" class="bi bi-arrow-right" viewBox="0 0 16 16">
    <path fill-rule="evenodd" d="M1 8a.5.5 0 0 1 .5-.5h11.793l-3.147-3.146a.5.5 0 0 1 .708-.708l4 4a.5.5 0 0 1 0 .708l-4 4a.5.5 0 0 1-.708-.708L13.293 8.5H1.5A.5.5 0 0 1 1 8z"/>
  </symbol>

</svg>
